<?xml version="1.0" standalone="no"?>
<!DOCTYPE svg PUBLIC "-//W3C//DTD SVG 20010904//EN"
 "http://www.w3.org/TR/2001/REC-SVG-20010904/DTD/svg10.dtd">
<svg version="1.0" xmlns="http://www.w3.org/2000/svg"
 width="1900.000000pt" height="1900.000000pt" viewBox="0 0 1900.000000 1900.000000"
 preserveAspectRatio="xMidYMid meet">
<metadata>
Created by potrace 1.14, written by Peter Selinger 2001-2017
</metadata>
<g transform="translate(0.000000,1900.000000) scale(0.100000,-0.100000)"
fill="#000000" stroke="none">
<path d="M10502 18770 l-184 -5 -42 -80 c-70 -134 -161 -305 -215 -405 -28
-52 -65 -122 -82 -155 -16 -33 -34 -67 -39 -75 -10 -16 -88 -162 -185 -345
-71 -136 -126 -238 -175 -330 -46 -87 -121 -227 -148 -277 -18 -36 -20 -37
-36 -20 -9 10 -16 21 -16 24 0 3 -61 113 -136 244 -75 132 -145 255 -156 274
-11 19 -29 51 -40 70 -11 19 -32 55 -46 80 -14 25 -96 169 -182 320 -86 151
-172 302 -190 335 -18 33 -39 69 -46 80 -7 11 -26 45 -43 75 -17 30 -45 80
-63 111 l-31 57 -236 -4 c-130 -2 -239 -3 -243 -4 -4 0 -6 -201 -3 -447 7
-658 16 -1519 20 -1833 2 -151 4 -318 4 -370 l1 -95 142 2 c79 1 203 2 276 2
l133 1 -6 563 c-4 309 -7 669 -9 800 -1 130 1 234 5 230 3 -5 18 -28 31 -53
14 -25 67 -117 118 -205 51 -88 103 -178 116 -200 12 -22 55 -96 94 -165 40
-69 84 -145 98 -170 13 -25 28 -49 32 -55 4 -5 18 -30 32 -55 14 -25 65 -115
114 -200 50 -85 93 -163 97 -173 6 -16 19 -18 143 -15 l136 3 59 110 c33 61
89 164 124 230 35 66 75 143 90 170 15 28 50 93 77 145 28 52 58 109 68 125 9
17 43 80 75 140 132 251 226 425 230 425 2 0 4 -57 5 -127 8 -618 10 -799 14
-1078 3 -176 5 -343 5 -372 l1 -51 253 3 c138 1 262 3 275 4 l23 1 -6 418 c-3
229 -7 575 -10 767 -2 193 -7 539 -11 770 -3 231 -7 502 -7 602 -1 101 -4 183
-7 184 -28 3 -148 3 -298 -1z"/>
<path d="M12775 18073 c-36 -3 -154 -19 -213 -29 -45 -9 -184 -56 -249 -85
-255 -114 -509 -349 -643 -594 -18 -33 -41 -73 -50 -90 -70 -127 -141 -367
-157 -535 -63 -624 270 -1165 864 -1408 94 -38 208 -72 293 -86 19 -3 53 -9
75 -12 152 -25 397 -1 574 57 101 33 272 115 336 162 72 52 133 104 195 167
93 92 117 121 192 235 181 272 271 576 262 885 -3 119 -5 140 -19 220 -19 111
-79 283 -133 379 -204 372 -564 625 -1017 716 -60 12 -240 22 -310 18z m324
-583 c274 -78 474 -278 548 -551 27 -97 24 -317 -5 -425 -100 -372 -363 -652
-676 -720 -55 -12 -198 -15 -256 -6 -108 18 -150 32 -247 80 -273 135 -431
406 -418 717 4 118 14 172 50 280 75 221 211 408 382 521 83 56 214 111 287
121 23 3 43 7 44 8 13 12 227 -7 291 -25z"/>
<path d="M5848 17995 c-2 -1 -29 -5 -60 -9 -200 -21 -436 -112 -636 -246 -311
-208 -528 -548 -579 -910 -10 -67 -10 -328 -1 -390 19 -133 82 -352 110 -387
6 -7 8 -13 5 -13 -9 0 57 -130 105 -208 172 -281 418 -490 707 -599 82 -31 74
-29 206 -57 95 -21 132 -24 275 -21 91 1 181 6 200 9 92 19 262 67 297 84 10
5 56 27 102 48 276 127 516 358 647 624 42 85 91 218 101 270 2 14 8 41 13 60
23 88 32 307 17 420 -13 104 -16 120 -33 187 -120 482 -451 881 -869 1047
-164 64 -313 93 -491 94 -62 0 -114 -1 -116 -3z m167 -560 c211 -24 438 -171
572 -370 72 -107 149 -279 168 -376 3 -13 8 -35 11 -49 13 -57 12 -247 -1
-311 -32 -154 -98 -279 -198 -382 -206 -210 -499 -290 -773 -211 -68 19 -198
87 -254 132 -152 121 -273 295 -340 488 -16 45 -23 75 -45 184 -8 37 -8 199
-1 245 10 67 14 80 30 130 95 278 324 467 626 518 75 13 113 13 205 2z"/>
<path d="M3369 16326 c-2 -3 -16 -7 -29 -9 -14 -3 -58 -17 -99 -32 -345 -126
-710 -454 -880 -792 -33 -67 -76 -188 -85 -241 -3 -17 -9 -47 -12 -64 -16 -94
-4 -237 28 -338 50 -157 131 -276 263 -385 151 -126 261 -170 432 -174 214 -5
397 71 798 329 126 81 266 158 325 179 56 19 144 25 186 11 90 -29 164 -128
165 -221 4 -208 -254 -502 -589 -669 -72 -36 -282 -115 -282 -105 0 2 -20 -3
-44 -10 -24 -8 -47 -11 -50 -8 -3 4 -6 -1 -6 -9 0 -14 18 -55 109 -253 20 -44
50 -110 66 -148 l30 -67 40 5 c22 3 65 12 95 21 30 8 60 16 67 18 7 1 16 5 19
9 4 4 14 7 23 7 25 0 228 101 311 155 237 153 442 352 575 560 192 300 229
606 105 872 -98 210 -316 399 -507 438 -60 13 -181 20 -218 14 -22 -4 -54 -9
-72 -12 -129 -20 -315 -111 -594 -287 -301 -192 -413 -242 -518 -233 -48 4
-70 13 -121 54 -41 31 -87 117 -93 169 -9 85 31 194 109 300 63 87 86 110 174
184 133 111 276 189 450 247 47 15 85 31 85 36 0 4 -49 108 -110 231 -102 207
-124 240 -146 218z"/>
<path d="M15486 16303 c-1 -1 -20 -3 -41 -4 -226 -10 -490 -179 -622 -398 -61
-101 -82 -173 -90 -303 -11 -183 53 -381 215 -668 30 -52 66 -115 80 -140 146
-257 188 -389 160 -500 -22 -86 -123 -160 -220 -162 -114 -3 -231 63 -373 206
-190 193 -328 464 -375 739 -7 37 -15 67 -18 67 -5 0 -238 -90 -297 -115 -16
-7 -63 -25 -102 -40 -70 -27 -73 -29 -73 -61 0 -47 24 -156 56 -249 107 -319
357 -663 629 -865 143 -107 268 -169 415 -205 109 -28 289 -26 393 3 141 40
261 113 370 225 205 211 253 450 152 753 -29 87 -132 296 -218 444 -148 253
-199 374 -201 475 -1 59 3 77 26 115 32 54 55 74 121 107 98 50 240 15 372
-92 165 -133 288 -313 375 -549 35 -96 34 -92 45 -154 6 -34 11 -42 24 -37
107 40 461 200 461 209 -1 26 -41 171 -66 234 -55 138 -157 313 -257 437 -70
86 -239 249 -320 310 -118 86 -286 171 -382 191 -92 20 -230 36 -239 27z"/>
<path d="M9018 14505 c-2 -1 -28 -5 -58 -9 -63 -7 -111 -15 -120 -21 -4 -2
-21 -7 -39 -10 -49 -8 -235 -73 -341 -118 -108 -46 -354 -168 -451 -223 -35
-20 -84 -48 -109 -62 -99 -56 -302 -183 -468 -294 -40 -26 -74 -48 -77 -48 -4
0 -183 -123 -243 -167 -34 -25 -193 -154 -218 -178 -29 -27 -321 -304 -348
-330 -175 -172 -386 -448 -514 -670 -208 -365 -348 -798 -388 -1204 -3 -30 -7
-57 -8 -59 -2 -1 -42 15 -89 37 -270 124 -658 245 -922 287 -27 4 -52 8 -55 9
-3 1 -34 5 -70 9 -36 5 -72 10 -80 11 -8 2 -51 6 -95 10 -44 3 -96 8 -115 10
-48 6 -607 6 -650 1 -19 -3 -69 -7 -110 -11 -41 -3 -102 -10 -135 -15 -33 -5
-80 -12 -105 -15 -37 -5 -266 -53 -332 -69 -185 -47 -406 -127 -628 -228 -312
-142 -632 -359 -915 -621 -261 -242 -460 -454 -603 -642 -20 -26 -143 -217
-175 -270 -146 -247 -299 -637 -344 -874 -2 -14 -6 -27 -8 -31 -2 -4 -7 -29
-11 -56 -3 -27 -7 -51 -9 -54 -2 -3 -6 -29 -10 -59 -4 -30 -9 -63 -11 -75 -27
-133 -27 -952 0 -1106 2 -14 10 -59 16 -100 7 -41 23 -122 37 -180 13 -58 26
-114 28 -125 14 -61 84 -266 127 -375 109 -268 245 -512 422 -755 60 -82 66
-90 174 -214 58 -66 87 -109 96 -140 33 -114 -23 -390 -108 -529 -36 -60 -78
-103 -136 -142 -150 -102 -185 -283 -75 -392 46 -46 233 -123 349 -144 114
-20 336 -27 362 -11 5 3 25 8 44 11 55 9 87 20 223 80 141 62 205 75 286 57
54 -11 130 -43 171 -72 71 -48 237 -76 347 -58 103 16 122 21 237 60 65 22
125 38 134 34 8 -3 45 -10 81 -15 36 -5 82 -12 101 -15 19 -3 55 -8 80 -11 70
-10 1325 -13 1415 -4 115 13 180 20 201 24 11 2 39 7 64 11 174 29 375 78 510
126 47 17 92 32 102 34 32 7 285 118 373 164 200 106 377 225 520 350 81 71
410 385 550 525 110 110 143 137 214 173 139 71 270 180 335 276 89 134 192
194 379 222 149 22 273 87 396 208 64 62 94 117 97 175 3 55 -20 79 -171 181
-150 101 -179 124 -261 207 -87 86 -148 180 -182 279 -14 38 -25 95 -19 95 2
0 34 -14 70 -30 139 -63 396 -148 497 -165 19 -3 43 -8 52 -11 38 -11 164 -33
290 -49 119 -16 301 -20 813 -20 595 0 653 3 880 36 234 34 550 121 774 213
82 33 88 33 56 -5 -37 -45 -78 -129 -115 -239 -17 -52 -33 -102 -35 -110 -6
-30 -18 -105 -21 -125 -13 -99 44 -133 193 -116 96 11 109 2 74 -47 -44 -63
-65 -163 -47 -219 14 -43 89 -70 196 -71 34 0 62 -2 63 -3 1 -2 27 -53 57
-114 103 -206 271 -457 433 -649 81 -95 437 -445 680 -669 190 -173 486 -358
732 -455 164 -65 391 -132 530 -156 17 -2 39 -7 50 -9 11 -3 47 -8 80 -12 32
-4 66 -8 75 -10 78 -15 284 -20 815 -20 587 0 766 5 834 25 16 4 31 6 34 4 2
-2 51 5 108 17 57 11 116 22 130 24 23 3 84 19 234 60 425 117 895 376 1181
650 11 11 101 97 199 190 331 316 405 393 516 540 111 147 222 340 293 510 21
50 44 104 51 120 48 107 137 446 160 612 3 21 7 47 10 58 2 11 7 47 10 80 3
33 8 74 10 90 24 178 24 1095 1 1222 -2 10 -7 43 -11 73 -4 30 -9 64 -11 75
-3 11 -7 36 -10 55 -3 19 -12 60 -20 91 -8 31 -14 64 -14 73 0 10 21 49 47 88
25 40 47 83 49 97 4 41 -23 79 -101 136 -40 30 -76 58 -79 63 -8 13 26 47 119
117 161 122 193 162 175 227 -9 30 -20 40 -74 67 -35 17 -68 31 -73 31 -16 0
-187 76 -265 118 -239 128 -479 289 -598 402 -30 28 -118 112 -195 185 -276
262 -481 418 -765 582 -338 195 -768 354 -1160 428 -14 3 -36 7 -50 10 -14 2
-45 7 -70 10 -25 3 -70 10 -100 15 -58 10 -146 18 -270 26 -84 5 -560 5 -630
0 -68 -5 -181 -16 -215 -21 -16 -3 -48 -7 -70 -10 -69 -9 -157 -25 -230 -41
-38 -9 -81 -18 -95 -20 -132 -24 -495 -149 -663 -228 -51 -24 -93 -43 -93 -42
-1 0 -5 37 -8 80 -7 85 -10 110 -27 221 -74 479 -302 968 -637 1365 -95 112
-461 468 -627 610 -395 337 -884 592 -1417 741 -101 28 -111 33 -161 83 -97
98 -206 136 -373 131 -97 -3 -166 -13 -248 -37 -23 -6 -45 -12 -51 -14 -5 -1
-30 -9 -55 -17 -75 -26 -107 -18 -138 34 -14 24 -40 59 -56 77 -34 37 -134 89
-187 97 -40 6 -167 13 -171 10z"/>
<path d="M9735 3765 c-82 -96 -172 -202 -200 -234 -27 -33 -69 -82 -93 -109
l-42 -50 222 0 223 1 60 52 c33 29 181 157 328 284 l268 231 -308 0 -308 -1
-150 -174z"/>
<path d="M9608 3195 c-2 -1 -33 -5 -69 -9 -37 -3 -73 -8 -80 -11 -8 -2 -25 -6
-39 -9 -82 -13 -223 -62 -320 -109 -130 -64 -242 -147 -350 -256 -114 -115
-176 -201 -249 -345 -37 -71 -91 -212 -96 -246 -1 -3 -4 -14 -8 -25 -3 -11 -8
-32 -11 -48 -3 -15 -7 -35 -10 -45 -6 -21 -16 -82 -22 -137 -6 -58 -6 -303 0
-349 3 -21 8 -57 11 -80 8 -56 43 -207 54 -231 5 -11 17 -42 26 -70 17 -46 89
-194 118 -240 247 -394 680 -627 1162 -626 395 0 720 132 995 401 203 199 347
515 386 845 9 75 9 296 0 350 -4 22 -11 67 -16 100 -26 161 -100 365 -183 500
-143 234 -362 424 -607 527 -189 80 -324 108 -537 113 -83 2 -153 2 -155 0z
m252 -551 c19 -3 46 -8 59 -11 50 -9 169 -60 227 -98 74 -48 180 -153 226
-226 104 -163 150 -343 143 -564 -4 -145 -19 -225 -63 -338 -91 -235 -270
-404 -502 -476 -86 -26 -246 -35 -345 -19 -318 50 -555 284 -641 633 -18 78
-28 334 -14 388 5 18 11 48 14 67 8 52 51 180 78 231 124 232 323 377 567 413
85 13 182 13 251 0z"/>
<path d="M12250 3185 c-52 -7 -105 -15 -117 -19 -12 -4 -30 -8 -40 -10 -107
-21 -231 -74 -333 -141 -196 -131 -319 -327 -347 -555 -10 -79 -6 -234 7 -294
64 -279 242 -447 599 -566 64 -21 163 -50 221 -65 425 -104 553 -163 612 -278
43 -85 13 -217 -64 -282 -82 -69 -196 -99 -383 -99 -161 -1 -221 6 -350 39
-170 44 -407 155 -473 222 -7 7 -18 13 -23 13 -10 0 -8 5 -123 -274 l-83 -200
26 -20 c140 -111 420 -228 621 -260 19 -3 46 -8 60 -11 122 -25 370 -35 492
-20 29 4 69 8 88 10 87 10 233 52 324 92 197 87 355 242 431 422 87 209 80
499 -18 674 -124 222 -321 335 -791 453 -409 103 -526 158 -577 271 -44 97
-12 222 78 297 119 100 385 130 638 71 106 -24 232 -72 342 -129 67 -35 105
-51 108 -43 2 7 43 116 90 242 98 264 102 229 -36 300 -161 82 -345 138 -534
161 -80 10 -361 9 -445 -1z"/>
<path d="M5613 3152 c-13 -2 -23 -9 -24 -15 0 -16 0 -2606 0 -2677 l1 -55 288
0 287 0 0 828 c0 455 2 827 5 827 3 -1 82 -103 175 -228 94 -125 172 -229 175
-232 3 -3 52 -68 110 -145 58 -76 112 -148 121 -160 9 -11 52 -67 96 -125 43
-58 184 -244 312 -415 129 -170 242 -319 252 -330 17 -19 29 -20 251 -19 128
1 236 2 239 3 4 0 7 618 7 1371 l1 1370 -42 1 c-141 3 -530 -1 -534 -5 -3 -3
-5 -374 -5 -825 0 -452 -3 -821 -7 -820 -3 0 -52 62 -108 137 -140 190 -446
596 -453 602 -3 3 -158 209 -345 458 l-340 452 -80 1 c-44 0 -143 1 -220 2
-77 1 -150 1 -162 -1z"/>
</g>
</svg>
